<svg xmlns="http://www.w3.org/2000/svg" width="256" height="256" viewBox="0 0 256 256"><path d="M59.7 166.7a31.9 31.9 0 0 0-7.7.9c0 .3.3.6.8 1l2 1 2.6 1 2.8.8 2.3.6 1.5.2h2.1l2.5-.4a9.9 9.9 0 0 0 2.4-.8 3.9 3.9 0 0 0 1.7-1.4 30.3 30.3 0 0 0-6.4-2.2 29.6 29.6 0 0 0-6.6-.7z"/><path d="M128 2a126 126 0 1 0 126 126A126 126 0 0 0 128 2zm82.2 69.5v.3a8.2 8.2 0 0 1-.1 1.4 15.2 15.2 0 0 0-.3 2.1 15.5 15.5 0 0 0-.4 2.1c-.1.6-.2 1.1-.2 1.3a7.6 7.6 0 0 0-.9 1.8 15.9 15.9 0 0 0-.7 2c-.2.6-.3 1.3-.5 2a15.4 15.4 0 0 1-.8 1.9 21.1 21.1 0 0 1-1.6 3 21.1 21.1 0 0 0-1.6 3l-19.8 27.5c-.1.3-.1.4-.2.5l-.3.3-.3.3-.4.5-1.6 2.2-2.1 2.9-2.1 3.2c-.8 1.1-1.4 2.2-2 3.2s-1 2.1-1.4 3a8 8 0 0 0-.5 2.3c0 .3-.2.5-.2.7s.2.4.2.7c-.2 0-.3.2-.3.4s.1.4.3.4v10.1a2.2 2.2 0 0 1-.3 1l-.3 1.1a6.7 6.7 0 0 0-.6 1.2c-.1.4-.5.8-.5 1.1v1.7a.3.3 0 0 1 0 .4c-.2.2-.2.5-.4.8l-.7.8-.5.4v.4c0 .1.7.2.8.4s.8.3.8.4v2.8a21.4 21.4 0 0 1-.6 3.5c-.2 1.2-.5 2.3-.7 3.5s-.5 2.3-.7 3.5a19.5 19.5 0 0 0-.3 3.4 44.3 44.3 0 0 0 .3 6.3 40.9 40.9 0 0 0 1 6.1 39.5 39.5 0 0 0 2.2 5.7 26.7 26.7 0 0 0 3.3 5.2l-1.2.8-1.7.7-1.7.4h-1.9l-1-.3-1.2-.2-.9-.2-.8-.2a1.1 1.1 0 0 1-.7-.3.9.9 0 0 1-.6-.4 1.6 1.6 0 0 1-.4-.7 27.5 27.5 0 0 0 .2-4.1l-.3-4.2c-.2-1.4-.4-2.8-.5-4.2l-.6-4.1a3.9 3.9 0 0 0-.2-.6.8.8 0 0 0-.2-.6c.1-1.1.1-2.3.1-3.6s0-2.6-.1-4a24.4 24.4 0 0 0-.6-3.9 11.6 11.6 0 0 0-1.4-3.4 3 3 0 0 0-1.4 1.8 17.3 17.3 0 0 0-.8 2.7c-.2.9-.2 1.9-.4 2.8s-1 1.7-1 2.3v1.5a17.7 17.7 0 0 1 0 2.3v3.7c0 2.8-.2 5.6-.1 8.2a77.2 77.2 0 0 0 .6 8.2l.4.3.8.6a2.7 2.7 0 0 1 .8.7.9.9 0 0 1 .3.6c0 .2-.2.5-.8.8l-1.8.9-2 .8-1.3.4h-.1l-4.8-2.6c-.2-.1-.2-.4-.2-.4v-.6a29.9 29.9 0 0 1 0-3 14.2 14.2 0 0 0 .2-3c0-1.3-.2-2.5-.3-3.8l-.6-3.6-.6-3.8a23.4 23.4 0 0 1-.3-3.8c0-1.2.1-2.3.1-3.3a23.6 23.6 0 0 1 .4-2.8c.2-.9.3-1.8.5-2.8s.4-2 .7-3.1a2 2 0 0 0-.1-.7c0-.4-.1-.6-.1-.8l-1.9.3-1.8.5-1.9.6-1.9.5-1.3.2h-1.1c-.3.1-.7-.1-1-.1l-1-.2h-7a45.2 45.2 0 0 0-5.3-.2H121a5 5 0 0 0-2.3.9v5.1c0 1.7-.1 3.4-.1 5.1l-.3 5.1c-.1 1.7-.2 3.4-.2 5.1v2.5a7.5 7.5 0 0 1 0 1.5v1.1c0 .5.7 1.1 1.2 1.6l1.3 1.7a13.6 13.6 0 0 1 1.2 1.7 3.2 3.2 0 0 1 .6 1.8c0 .1-.1.1-.1.2v.2a9 9 0 0 1-4 .4c.1.5 0 .7-.2.8h-2.7l-2.3-.2a6.1 6.1 0 0 1-1.8-.9 2.1 2.1 0 0 1-.7-1.8 5.3 5.3 0 0 1 .1-1.3l.3-1.3a5 5 0 0 0 .3-1.3 5.9 5.9 0 0 0 .2-1.4 24.3 24.3 0 0 0-.3-3.8c-.2-1.2-.4-2.4-.7-3.5s-.5-2.7-.8-3.8a29.6 29.6 0 0 1-.7-4h-.4c-.2 0-.4.8-.5 1l-.4.6-.3.6c-.5.7-1 1.5-1.6 2.2a22.8 22.8 0 0 0-2.5 4.7 7.5 7.5 0 0 0-.4 2.6 5.1 5.1 0 0 0 .3 1.7l.7 1.5a10.5 10.5 0 0 0 .8 1.1l.3.6a.8.8 0 0 1-.4.7l-1 .5-1.3.2H98l-1.1-.4a2.2 2.2 0 0 1-.7-.9 7.6 7.6 0 0 1-.5-1.6 7.5 7.5 0 0 1-.5-1.6 4.1 4.1 0 0 1-.3-1.6 2.8 2.8 0 0 1 .4-1.5l.9-1.6 1.1-1.5a10.9 10.9 0 0 0 .8-1.5l2.4-5.8c.8-2 1.6-3.9 2.5-5.9l.4-.7.6-.7.4-.7a2.9 2.9 0 0 0 .2-.9.7.7 0 0 0-.4-.6H103l-8.9 2.7a3.2 3.2 0 0 1-1.3.6l-1.8.3-1.6.6a1.3 1.3 0 0 0-.6 1.1 2.9 2.9 0 0 0 .2.9l.7.6.8.6a1.3 1.3 0 0 1 .7.6l-.4.4-1.2-.8-1.4-.9-1.5-.6-1.5-.2a17.3 17.3 0 0 0-3.8.5l-3.9 1.1c-1.3.5-2.7.8-4.1 1.2a19.3 19.3 0 0 1-4.2.5l-3.4-.4c-1.5-.3-3.1-.6-4.8-1.1s-3.6-1.1-5.4-1.8a32.8 32.8 0 0 1-5-2.2 13 13 0 0 1-3.6-2.7 3.8 3.8 0 0 1-1.4-2.9 4 4 0 0 1 1.1-3.2 6.2 6.2 0 0 1 2.7-1.7 13.4 13.4 0 0 1 3.5-.1 31.1 31.1 0 0 1 3.3.3h3.9a3.1 3.1 0 0 1 1.3-.2h2.3l2.5.3 2 .3 1.9.5 1.8.9 1.8.7a6.4 6.4 0 0 0 2 .3 8.4 8.4 0 0 0 3.9-1 34.5 34.5 0 0 0 4.1-2.5l3.9-3.1 3.2-2.7 1.9-1.3 1.8-1.1a6.6 6.6 0 0 0 1.7-1.2 6.1 6.1 0 0 0 1.5-1.7 39.1 39.1 0 0 0 2.6-4.4 33.5 33.5 0 0 1 2.7-4.5 8 8 0 0 1 1.3-1.3l1.5-.9 1.6-.9 1.6-.9 3.6-2.6 3.4-2.9 3.3-3c1.1-1 2.3-1.9 3.5-2.8a17.2 17.2 0 0 1 3.7-2.2l3.9-1.9 2.5-1.2 2.4-1.3 2.6-1.2a11.1 11.1 0 0 1 2.6-.7l22.2-3.2a12.1 12.1 0 0 0 3.5-1.2 20.2 20.2 0 0 0 3.3-2.1 42 42 0 0 0 3.2-2.9c1-1 1.9-2.1 2.9-3.2l2.6-3.2 2.3-2.8 7.6-8.9.4-.2.5-.6c.2-.2.4-.3.5-.5l.3-.3 2-3.2.3-.2.3-.2.4-.2.2-.2.4-.4.4-.4 1.2-1.7a24.3 24.3 0 0 0 1.4-2 21.4 21.4 0 0 0 1.3-1.9l1-1.7a16.7 16.7 0 0 0 .8-2c.2-.7.5-1.4.7-2.1a14.3 14.3 0 0 1 .8-2.2c.2-.7 1-1.5 1-2.2v-6a5.3 5.3 0 0 0-1.1-3.1 12.8 12.8 0 0 0-2.6-2.6 22.1 22.1 0 0 0-3.4-1.8 10.4 10.4 0 0 0-3.1-.7 26.3 26.3 0 0 0-5.8.7 13.7 13.7 0 0 0-5.1 2.6l-1.4 1.5-1.6 1.9-1.8 2a15.3 15.3 0 0 1-1.8 1.8 10.2 10.2 0 0 1-1.8 1.3 3.1 3.1 0 0 1-1.8.5 1.5 1.5 0 0 1-1.1-.4 1.8 1.8 0 0 1-.5-1.2v-.4a2 2 0 0 0 .1-.5 1.9 1.9 0 0 1 .2-.7c0-.3.1-.6.1-.8a4.3 4.3 0 0 1 .1-.5 4.1 4.1 0 0 0-.3-1.6 5.9 5.9 0 0 0-.6-1.4l-.6-1.1a5.1 5.1 0 0 1-.2-1.3 1.3 1.3 0 0 0 .8-.2 1.8 1.8 0 0 0 .5-.7l.4-.7a1.2 1.2 0 0 1 .8-.6h1.4c.3.1.6-.1.9-.1h.5q.8 0 .9-.3a2.7 2.7 0 0 1 .8-.7h.3c.1 0 .2.2.3.3a.8.8 0 0 0 .2.5.4.4 0 0 1 .4-.4l.6-.4 1.1-.6 1.3-.8 1.4-.8 1-.7a1.5 1.5 0 0 0 .6-.4l2.1-1.2 1.7-.6a6.5 6.5 0 0 1 2-.2h6.3a4.4 4.4 0 0 0 1.5.5 4 4 0 0 0 1.5.3l1.6.4a4.4 4.4 0 0 1 1.5.5 15.1 15.1 0 0 1 4.5 2.9 21.2 21.2 0 0 1 3.2 4.2 21.1 21.1 0 0 1 1.7 5 24.7 24.7 0 0 1 .5 5.4v2.3z"/></svg>