<svg xmlns="http://www.w3.org/2000/svg" viewBox="0 0 256 256" width="256" height="256"><path d="M132.5 150.94c-.28 0-.42.19-.42.59H132c-.31 0-.47.16-.47.49s.16.59.47.59.41-.2.41-.59.05 0 .09 0c.34 0 .5-.16.5-.49s-.16-.59-.5-.59zm1.44-.79a2.17 2.17 0 0 0-.85.79h.29a2.22 2.22 0 0 0 1.1-.33 2.19 2.19 0 0 0 .84-.78H135a2 2 0 0 0-1.06.32zm3.06-2.55q-.42 0-.42.54a.25.25 0 0 0-.13 0c-.28 0-.42.18-.42.56a.23.23 0 0 0-.12 0c-.31 0-.48.2-.48.59s.17.54.48.54.46-.18.46-.54h.08c.32 0 .46-.2.46-.59s.05 0 .09 0c.34 0 .5-.18.5-.56s-.19-.54-.5-.54zm23-5.87a13.1 13.1 0 0 1-1.26 1.4 1.78 1.78 0 0 0 .8 1 2.94 2.94 0 0 0 1.13.19 2.17 2.17 0 0 0 1.39-.47 4.92 4.92 0 0 0 1-1.21 10.6 10.6 0 0 0 .75-1.46c.22-.51.38-1.16.5-1.16H161c-.24.04-.55 1.11-1 1.71z"/><path d="M128 2a126 126 0 1 0 126 126A126 126 0 0 0 128 2zm94.49 74.75a4.9 4.9 0 0 1-1.55.37 13.08 13.08 0 0 1-1.64.09h-1.1l-.93.07a42.54 42.54 0 0 0-5.16 1.23 16.11 16.11 0 0 0-3.62 1.58 9.18 9.18 0 0 0-2.49 2.16 13.61 13.61 0 0 0-1.75 2.91A36.21 36.21 0 0 0 202.8 89c-.47 1.47-1 3.13-1.64 5-.39 1.18-.79 2.31-1.18 3.4s-.81 2.14-1.25 3.15-.91 2.06-1.43 3.11-1.1 2.1-1.74 3.21a34.39 34.39 0 0 1-2.65 4c-.94 1.23-1.91 2.45-2.92 3.63s-2 2.35-3.08 3.53-2.07 2.45-3.09 3.8a10.11 10.11 0 0 0-1.36 2.65c-.3.87-.61 1.72-1 2.53a7.88 7.88 0 0 1-1.33 2.18 5.44 5.44 0 0 1-2.46 1.58 8.59 8.59 0 0 1-1.33.56l-2 .67-2 .63c-.64.2-1.08.33-1.35.38a2.92 2.92 0 0 1 .17 2 2 2 0 0 1-.86.92 12.14 12.14 0 0 1-1.2.59 1.64 1.64 0 0 0-.88 1l-2.22 6.71a2.63 2.63 0 0 1-1 1.5 6.05 6.05 0 0 1-1.75.85 10.83 10.83 0 0 1-2 .18 13.82 13.82 0 0 1-1.84-.13h-.84c-.48 0-.86.16-1.12.05s-.41-.33-.41-.84a.58.58 0 0 1 .11-.37 3.11 3.11 0 0 1 .23-.28l.24-.28a.75.75 0 0 0 .09-.39.49.49 0 0 0 0-.11.44.44 0 0 1 0-.18 22.53 22.53 0 0 0-3.4 1.64c-1.1.64-2.22 1.33-3.34 2l-3.3 2.15a35.48 35.48 0 0 1-3.34 2 3.14 3.14 0 0 1-.85.44 11.27 11.27 0 0 0-1.15.58 4.84 4.84 0 0 0-1 .77 1.48 1.48 0 0 0-.43 1 2.86 2.86 0 0 0 0 .33v.23c.56.49 1.15 1 1.78 1.61s1.25 1.15 1.92 1.71 1.33 1.1 2 1.59a14.08 14.08 0 0 0 2.09 1.23 9.34 9.34 0 0 0 1.79.68l1.92.52c.65.2 1.27.4 1.88.64a7.4 7.4 0 0 1 1.66.91 7.93 7.93 0 0 1 1.33 1.39l1.1 1.5c.35.49.72 1 1.12 1.45a6.21 6.21 0 0 0 1.51 1.3 6 6 0 0 0 1.66.59 17.46 17.46 0 0 1 2.06.64 6.38 6.38 0 0 1 1.77 1 2.07 2.07 0 0 1 .76 1.69.91.91 0 0 1-.07.28 1.39 1.39 0 0 0 0 .23l-5.57 1.13a4.08 4.08 0 0 0-1.09.38 2.25 2.25 0 0 1-1.15.26h-.28a1.59 1.59 0 0 0-.27 0l-1.12-.62-1.73-1c-.61-.35-1.16-.69-1.67-1a6.25 6.25 0 0 1-1-.73s-.1-.09-.2-.22l-.31-.49-.34-.54c-.1-.18-.2-.33-.25-.45l-2.24-4.47-1.13-.44-1.79-.74c-.68-.28-1.37-.59-2.12-.92s-1.45-.66-2.12-1-1.27-.58-1.78-.83a9.51 9.51 0 0 1-1.1-.59 23.17 23.17 0 0 1-2.92-1.56 16.06 16.06 0 0 1-2.6-2.12 12.87 12.87 0 0 1-2-2.66 8.07 8.07 0 0 1-1-3.11l-.56.23a2.61 2.61 0 0 0-.59.33 7.09 7.09 0 0 1-.85.64l-1.7 1.17c-.65.44-1.36.92-2.1 1.4s-1.45.92-2.11 1.34-1.24.78-1.74 1.07a8.9 8.9 0 0 1-.93.53c-2.24 1.33-4.21 2.5-5.94 3.5a23.31 23.31 0 0 0-4.5 3.38 17.22 17.22 0 0 0-3.59 4.41c-.87 1.69-.72 3.88-2.36 6.56v.21a2.77 2.77 0 0 1 0 .41 4.34 4.34 0 0 0 0 .51v.43a9.92 9.92 0 0 0 1.14 4.4 7.83 7.83 0 0 0 2.11 2.55 8.66 8.66 0 0 0 2.61 1.4 27.1 27.1 0 0 1 2.54 1 5.46 5.46 0 0 1 2 .95 5 5 0 0 1 .79 2h-13.23s-.09-.24-.18-.39-.24-.12-.37-.2a4.11 4.11 0 0 0-.49-.15 2.79 2.79 0 0 1-.61-.32 2.93 2.93 0 0 1-1.25-1.52 8.92 8.92 0 0 1-.46-2.14 16.51 16.51 0 0 1 .2-2.32c0-.77.28-1.44.28-2v-1.44a7 7 0 0 1 .26-1.75c.22-.8.33-1.69.58-2.68s.47-2 .76-3.12.55-2.13.8-3.12.47-1.87.65-2.65.34-1.36.42-1.74a15.13 15.13 0 0 1 .66-2 13.19 13.19 0 0 1 1-1.88 14 14 0 0 0 4.47-2.55 26 26 0 0 0 3.22-3.25c1-1.13 1.94-2.27 2.88-3.4a15.44 15.44 0 0 1 3.4-3.06 7 7 0 0 1 1.43-.7l2-.79c.75-.3 1.51-.63 2.3-1a14.78 14.78 0 0 0 2.14-1.11 8.39 8.39 0 0 0 1.56-1.32 2.34 2.34 0 0 0 .61-1.54v-1.32a1.84 1.84 0 0 0-.63-1.2 6.3 6.3 0 0 1-.75-.28l-1.18-.52-1.17-.56-.77-.33a10.08 10.08 0 0 1-2-1.2c-.83-.61-1.7-1.23-2.61-1.88s-1.74-1-2.53-1.54a3.17 3.17 0 0 0-1.73-.56h-7.8c-5.94 0-11.77-.1-17.52.1s-11.59.2-17.52.2c-4.36 0-8.61-.15-12.76-.36a110.14 110.14 0 0 1-12.27-1.36 84.22 84.22 0 0 1-11.92-2.91 68 68 0 0 1-11.68-5l-1.42-.71a11.88 11.88 0 0 1-1.57-1 6.26 6.26 0 0 1-1.29-1.28 2.55 2.55 0 0 1-.52-1.57 6.92 6.92 0 0 1 2.08.4c.79.28 1.6.57 2.39.92s1.51.66 2.17 1 1.15.51 1.49.62c1.43.56 3 1.12 4.62 1.65s3.32 1 5 1.43 3.41.74 5.08 1a33.06 33.06 0 0 0 4.82.35h25.07a9.39 9.39 0 0 0 1.22-.12l2.53-.34c1-.13 2.12-.31 3.34-.52s2.41-.41 3.6-.6 2.33-.4 3.4-.61 2-.41 2.65-.57l6.83-1.34c2.42-.46 4.85-1 7.3-1.59s4.85-1.3 7.2-2.09a48 48 0 0 0 6.56-2.77c1.28-.6 2.54-1.19 3.79-1.76s2.48-1.12 3.77-1.6 2.58-.93 3.91-1.31a32.27 32.27 0 0 1 4.17-.91c.1 0 .45-.06 1-.11l1.77-.12 1.76-.14a5.33 5.33 0 0 0 1-.18c.31 0 .93-.14 1.87-.33l3.32-.73c1.27-.28 2.61-.57 4-.9s2.76-.62 4-.9 2.35-.92 3.28-1.11 1.57-.72 1.88-.72h6.46c2.7 0 5.32.48 7.87.71s5.13.51 7.78.51a10 10 0 0 0 5-1.24 18.15 18.15 0 0 0 4.47-3.48 32 32 0 0 0 3.86-4.92 62 62 0 0 0 3.23-5.61c1-1.89 1.82-3.74 2.53-5.53s1.3-3.38 1.76-4.77c.42-1.18.78-2.33 1.11-3.43s.66-2.15 1-3.1a15.19 15.19 0 0 1 1.2-2.6 7.22 7.22 0 0 1 1.76-2 7.87 7.87 0 0 1 2.59-1.59 12.46 12.46 0 0 1 3.77-.78h3.04c.75 1.64 1.74.9 3 1.3a35.32 35.32 0 0 1 3.51 1.51 15 15 0 0 1 3 1.81 2.82 2.82 0 0 1 1.24 2.16 2 2 0 0 1-.45 1.4 3 3 0 0 1-1.13.79z"/></svg>