<svg xmlns="http://www.w3.org/2000/svg" viewBox="0 0 256 256" width="256" height="256"><path d="M128 2a126 126 0 1 0 126 126A126 126 0 0 0 128 2zm109 115c-1.4.08-2.76.08-4.08 0s-2.4-.08-3.22-.08c-3 0-6-.15-9.06-.44s-6-.63-9-1-6-.65-9-1-6-.44-9.1-.44a133.37 133.37 0 0 0-16.14 1 72.72 72.72 0 0 0-15.68 3.66l-30.33 11a2.49 2.49 0 0 0-1.2 1.55 19.64 19.64 0 0 0-.8 2.71c-.23 1-.43 1.92-.63 2.82a7 7 0 0 1-.6 1.94 3.09 3.09 0 0 0 1.36 1.32 22.16 22.16 0 0 0 2.42 1.15c.9.38 1.85.76 2.86 1.17a17.31 17.31 0 0 1 2.74 1.43 8.29 8.29 0 0 1 2.07 1.85 3.84 3.84 0 0 1 .81 2.44 1.65 1.65 0 0 1-.48 1.2 5.23 5.23 0 0 1-1.2.87 12.94 12.94 0 0 1-1.59.72 9.17 9.17 0 0 0-1.6.79 4.55 4.55 0 0 0-1.21 1 2.31 2.31 0 0 0-.48 1.5 3.65 3.65 0 0 0 .79 2.51 7.77 7.77 0 0 0 1.9 1.57c.74.46 1.53.88 2.35 1.31a7.25 7.25 0 0 1 2.14 1.71 17.21 17.21 0 0 1 2 3.42 23.53 23.53 0 0 1 1.26 3.65 34.7 34.7 0 0 1 .76 3.81c.18 1.3.1 2.61.25 3.91l1.31 1.3v7.1a3.78 3.78 0 0 1 .85 0c.28.05.7.1 1 .18l1 .21a1.64 1.64 0 0 1 .56.23c0 .45.08.73.08.84a6.59 6.59 0 0 1-.47 2.19 3.09 3.09 0 0 1-.62.93 1 1 0 0 1-.87.3H143c-.2 0-.51-.52-1-.81s-.95-.54-1.48-.85-1-.46-1.54-.77-.89-.86-1.15-.86h-6.1a4.64 4.64 0 0 1 .64-2.92 4.29 4.29 0 0 1 1.63-1.54 6.67 6.67 0 0 1 2.1-.64c.74-.1 1.45-.22 2.1-.35a5 5 0 0 0 1.62-.6 1.47 1.47 0 0 0 .64-1.35 2.31 2.31 0 0 0 0-.34v-.29c-.18-.41-.46-1-.84-1.76s-.79-1.56-1.27-2.4a26.36 26.36 0 0 0-1.51-2.45 9.39 9.39 0 0 0-1.54-1.79 7 7 0 0 0-1.29-.79l-1.84-.94a18.61 18.61 0 0 1-1.74-1 2.13 2.13 0 0 1-.95-1.08 23.44 23.44 0 0 1-.92-2.91 21 21 0 0 0-1.07-3.19 7.92 7.92 0 0 0-1.71-2.57 3.92 3.92 0 0 0-2.86-1 23 23 0 0 0-6 .79 26.07 26.07 0 0 0-10.62 5.65 22.11 22.11 0 0 0-3.89 4.54.44.44 0 0 1-.35.18h-.16a.15.15 0 0 1-.12-.15.68.68 0 0 1-.2-.33c0-.18-.09-.4-.16-.63s-.12-.42-.16-.6a.66.66 0 0 0-.15-.33.64.64 0 0 0-.28-.07 1.4 1.4 0 0 0-1 .48 5.87 5.87 0 0 0-.87 1.15l-.9 1.19a3.68 3.68 0 0 1-.83 1 4.32 4.32 0 0 1-.65-1.63 14.55 14.55 0 0 1-.08-1.62 10 10 0 0 1 .4-2.88c.26-.92.56-1.84.88-2.78s.64-1.56.91-2.53a19.63 19.63 0 0 0 .39-2.74h-4.81c0-1.65.21-1.79.64-2.35a5.76 5.76 0 0 1 1.59-1.56 7.13 7.13 0 0 1 2.11-.91 10.45 10.45 0 0 1 2.1-.29 19.94 19.94 0 0 1 3 .2l2.91.46c1 .18 1.91.33 2.86.46a21.26 21.26 0 0 0 2.89.19h2.29a2.54 2.54 0 0 0-1.68-1.35 15.09 15.09 0 0 0-2.51-.45l-2.67-.19c-.88-.05-1.59.14-2.17-.2l-3.86-2.17h-.28a13.22 13.22 0 0 0-3.14 0 13.42 13.42 0 0 1-3.12.16 7.36 7.36 0 0 1-3-.69 26 26 0 0 1-2.62-1.36c-.84-.48-1.76-1-2.59-1.34a5 5 0 0 0-2.86-.62v6a12.32 12.32 0 0 0 1.57-.15 5.33 5.33 0 0 0 1-.33 4.68 4.68 0 0 0 .87-.51c.32-.19.37-.41.88-.64.12-.06.61-.13.61-.16v2.74l2-.67c0 .11.2.28.22.51s.12.38.12.49a5.51 5.51 0 0 1-1.3 3.85 21.93 21.93 0 0 1-3.23 2.87 22.54 22.54 0 0 0-4.56-1.25c-1.5-.24-3.09-.46-4.74-.65v-7.73c0 .08-1 .25-1.72.53a17.22 17.22 0 0 0-2 1 12.72 12.72 0 0 0-1.9 1.19c-.46.41-.92.8-.92 1.16v6.84a10.25 10.25 0 0 0 2.94-.28 12.2 12.2 0 0 0 1.82-.59 12.75 12.75 0 0 0 1.22-.59 2.6 2.6 0 0 1 1.21-.28h.14a.79.79 0 0 0 .2 0c0 .11.14.34.29.72s.29.79.46 1.23.28.89.38 1.28a4.46 4.46 0 0 1 .18 1 5.16 5.16 0 0 1-.39 1.89 7.39 7.39 0 0 1-1.1 1.72 6 6 0 0 1-1.55 1.33 3.35 3.35 0 0 1-1.81.54 4.37 4.37 0 0 1-.57-.06 3.76 3.76 0 0 0-.44-.05c-.74-.15-1.73-.32-3-.48a26.64 26.64 0 0 1-3.62-.71 11.55 11.55 0 0 1-3.21-1.23 2.49 2.49 0 0 1-1.44-2.07V149.7c0-.11.39-.38.88-.82s1.16-.95 1.87-1.59 1.52-1.35 2.36-2.16a26.29 26.29 0 0 0 2.35-2.51 19.9 19.9 0 0 0 1.8-2.63 5.41 5.41 0 0 0 .73-2.56 3.8 3.8 0 0 0-1.17-2.75 11.43 11.43 0 0 0-2.77-2 24.49 24.49 0 0 0-3.22-1.42c-1.09-.36-1.93-.65-2.52-.89l-1.3-9c-.14-.82-.34-1.71-.6-2.68a11.93 11.93 0 0 0-1.11-2.73 7.38 7.38 0 0 0-1.75-2.12 4.1 4.1 0 0 0-2.63-.87 12.4 12.4 0 0 0-3.6.48 14.72 14.72 0 0 0-3.19 1.48c-.33.23-.87.56-1.63 1l-2.51 1.48c-.94.54-1.91 1.12-2.94 1.74s-2 1.18-3 1.73-1.77 1.21-2.51 1.64-1.3 1.1-1.63 1.1h-1c-.46 0-1-.2-1.71-.23A14.21 14.21 0 0 1 30 123a3.48 3.48 0 0 1-1.37-.75c-.46-.31-.34-.8-.34-1.36v-1.86c0-.59-.22-.9.05-.92s.66 0 1.55 0a1.18 1.18 0 0 1 0-.42c.07-.25.09-.51.16-.81s.12-.59.17-.85a.89.89 0 0 0 0-.5 2.42 2.42 0 0 0-.8-.82l-.87-.49a2.42 2.42 0 0 1-.69-.66 2 2 0 0 1-.28-1.23 3.26 3.26 0 0 1 .24-1.17 5 5 0 0 1 .68-1.15c.28-.36.24-.64.6-.87a3.61 3.61 0 0 1 .81-.33v.77c0 .5.41 1 .56 1.47a1.16 1.16 0 0 0 1.19.72 1.61 1.61 0 0 0 1.09-.48 5.73 5.73 0 0 0 .95-1.11 11.52 11.52 0 0 0 .63-1.62c.14-.45.25.27.25-1.38H22.49a1.88 1.88 0 0 1-.85-.46c-.36-.27-.71-.39-1-.67a6.41 6.41 0 0 1-.9-.8 1.42 1.42 0 0 1-.39-1 4.52 4.52 0 0 1 1.06-3.16A7.63 7.63 0 0 1 23 99.3a17.59 17.59 0 0 1 3.16-1 22.6 22.6 0 0 0 2.83-.82c.41-.15 1.15-.46 2.18-.92s2.17-1 3.34-1.55 2.28-1.06 3.3-1.57a10.09 10.09 0 0 1 2.17-1.06h13.5a7.35 7.35 0 0 1 3.82 1 13.25 13.25 0 0 1 3.09 2.5 26.39 26.39 0 0 1 2.52 3.28c.77 1.17 1.53 2.27 2.27 3.27a15.91 15.91 0 0 0 2.2 2.57 3.62 3.62 0 0 0 2.46 1 .82.82 0 0 0 .78-.39.86.86 0 0 1 .83-.4 3.72 3.72 0 0 1 1.5.32c.49.19 1 .44 1.51.7s1 .5 1.51.69a3.8 3.8 0 0 0 1.55.31c1.38 0 2.74-.06 4.08-.19s2.69-.28 4.05-.45 2.73-.32 4.08-.47a36.51 36.51 0 0 1 4.08-.23 64.79 64.79 0 0 1 7.23.39 38.27 38.27 0 0 1 7.16 1.56c1.65.56 3.31 1.22 5 2s3.37 1.46 5.06 2.15a47 47 0 0 0 5.18 1.74 21.19 21.19 0 0 0 5.39.69h1.25c.62 0 1-.06 1.31-.06 4.26-.92 8.52-1.83 12.76-2.68s8.48-1.63 12.7-2.27 8.52-1.15 12.8-1.55 8.63-.56 13-.56H186c1.79 0 3.61 0 5.45.12a40.12 40.12 0 0 1 5 .92l36.07 7.18h11.61c-.79 0-1.83 1-3.11 1.35a18.5 18.5 0 0 1-4.02.13z"/></svg>